<?xml version="1.0" encoding="utf-8"?>
<!-- Generator: Adobe Illustrator 19.1.0, SVG Export Plug-In . SVG Version: 6.00 Build 0)  -->
<svg version="1.1" id="Layer_1" xmlns="http://www.w3.org/2000/svg" xmlns:xlink="http://www.w3.org/1999/xlink" x="0px" y="0px"
	 viewBox="-3 181.2 151.6 151.6" style="enable-background:new -3 181.2 151.6 151.6;" xml:space="preserve">
<style type="text/css">
	.st0{fill:#7BA940;}
	.st1{clip-path:url(#SVGID_2_);fill:#FFFFFF;}
	.st2{clip-path:url(#SVGID_4_);fill:#FFFFFF;}
	.st3{fill:#FFFFFF;}
</style>
<g>
	<circle class="st0" cx="72.8" cy="257" r="75.8"/>
	<path class="st0" d="M37.6,283l21.1-8.8c1.8-0.7,2.9-2.5,2.9-4.4v-5.7h23.6v5.7c0,1.9,1.1,3.6,2.9,4.4l21.1,8.8
		c2.6,1.1,4.4,3.7,4.4,6.5v9.5c0,2.6-2.1,4.7-4.7,4.7H38c-2.6,0-4.7-2.1-4.7-4.7v-9.4C33.3,286.7,35,284.1,37.6,283z"/>
	<path class="st0" d="M49.8,232.8l1.9,21c0.3,3.1,2.1,5.9,4.8,7.4l12.3,6.8c2.9,1.6,6.3,1.6,9.2,0l12.3-6.8c2.7-1.5,4.5-4.3,4.8-7.4
		l1.9-21c0,0-26-2.4-37.8-9.5C59.3,223.4,56.9,230.4,49.8,232.8z"/>
	<g>
		<g>
			<g>
				<defs>
					<rect id="SVGID_1_" x="23" y="205.7" width="100.5" height="90.2"/>
				</defs>
				<clipPath id="SVGID_2_">
					<use xlink:href="#SVGID_1_"  style="overflow:visible;"/>
				</clipPath>
				<path class="st1" d="M123,261c-0.2-0.2-0.6-0.4-0.9-0.3l-98,8.9c-0.3,0-0.7,0.2-0.9,0.5c-0.2,0.3-0.3,0.6-0.2,1
					c1.6,6.2,18,14.1,23.5,13.6c2.5-0.2,4-1,5.8-1.8c2.6-1.3,5.2-2.5,10.6-2.5c5.3,0,8,1.3,10.5,2.5c2.2,1.1,3.9,1.9,7.7,1.9
					c3.9,0,6.7-1.4,7.7-1.9c2.6-1.3,5.2-2.5,10.6-2.5c0.3,0,0.7,0,1,0c0.1,0,0.3,0,0.4-0.1c13.6-4.8,22-11.6,22.5-18.4
					C123.4,261.6,123.2,261.3,123,261L123,261z"/>
			</g>
			<g>
				<defs>
					<rect id="SVGID_3_" x="23" y="205.7" width="100.5" height="90.2"/>
				</defs>
				<clipPath id="SVGID_4_">
					<use xlink:href="#SVGID_3_"  style="overflow:visible;"/>
				</clipPath>
				<path class="st2" d="M68.3,223.4c1.6,9.3,3,22.9,1.1,34.5c-0.1,0.4,0,0.7,0.3,1c0.2,0.2,0.5,0.4,0.9,0.4h0.1l35.4-3.2
					c0.3,0,0.7-0.2,0.9-0.5s0.3-0.6,0.2-1c-0.7-2.6-2.8-9.5-7.6-17.6c-5.4-9.1-15.4-21.8-32.9-31.1c-0.4-0.2-0.9-0.2-1.3,0.1
					c-0.4,0.3-0.5,0.8-0.4,1.2C65.6,210.2,67.1,216.2,68.3,223.4L68.3,223.4z"/>
			</g>
		</g>
		<path class="st3" d="M39.1,262.2h0.1l21.9-2c0.5,0,1-0.4,1.1-1c1.7-9.4-0.2-25.6-1.1-32.1c-0.1-0.4-0.3-0.8-0.7-0.9
			c-0.4-0.2-0.8-0.1-1.2,0.2C43,239.3,38.9,256,38,260.9c-0.1,0.4,0,0.7,0.3,1C38.4,262.1,38.7,262.2,39.1,262.2L39.1,262.2z"/>
		<path class="st3" d="M99.4,284.8c-5.3,0-8.1,1.4-10.6,2.5c-2.2,1.1-3.9,1.9-7.7,1.9s-5.6-0.8-7.7-1.9c-2.5-1.2-5.2-2.5-10.6-2.5
			c-5.3,0-8.1,1.4-10.6,2.5c-2.2,1.1-3.9,1.9-7.7,1.9s-5.6-0.8-7.7-1.9c-2.5-1.2-5.2-2.5-10.6-2.5v6.4c3.8,0,5.6,0.8,7.7,1.9
			c2.5,1.2,5.2,2.5,10.6,2.5s8.1-1.4,10.6-2.5c2.2-1.1,3.9-1.9,7.7-1.9s5.6,0.8,7.7,1.9c2.5,1.2,5.2,2.5,10.6,2.5
			c5.3,0,8.1-1.4,10.6-2.5c2.2-1.1,3.9-1.9,7.7-1.9s5.6,0.8,7.7,1.9c2.5,1.2,5.2,2.5,10.6,2.5v-6.4c-3.8,0-5.6-0.8-7.7-1.9
			C107.5,286.1,104.7,284.8,99.4,284.8L99.4,284.8z"/>
	</g>
</g>
</svg>
