<?xml version="1.0" encoding="utf-8"?>
<!-- Generator: Adobe Illustrator 19.1.0, SVG Export Plug-In . SVG Version: 6.00 Build 0)  -->
<svg version="1.1" id="Layer_1" xmlns="http://www.w3.org/2000/svg" xmlns:xlink="http://www.w3.org/1999/xlink" x="0px" y="0px"
	 viewBox="-3 181.2 151.6 151.6" style="enable-background:new -3 181.2 151.6 151.6;" xml:space="preserve">
<style type="text/css">
	.st0{fill:#7BA940;}
	.st1{fill:#FFFFFF;}
</style>
<g>
	<circle class="st0" cx="72.8" cy="257" r="75.8"/>
	<path class="st0" d="M37.6,283l21.1-8.8c1.8-0.7,2.9-2.5,2.9-4.4v-5.7h23.6v5.7c0,1.9,1.1,3.6,2.9,4.4l21.1,8.8
		c2.6,1.1,4.4,3.7,4.4,6.5v9.5c0,2.6-2.1,4.7-4.7,4.7H38c-2.6,0-4.7-2.1-4.7-4.7v-9.4C33.3,286.7,35,284.1,37.6,283z"/>
	<path class="st0" d="M49.8,232.8l1.9,21c0.3,3.1,2.1,5.9,4.8,7.4l12.3,6.8c2.9,1.6,6.3,1.6,9.2,0l12.3-6.8c2.7-1.5,4.5-4.3,4.8-7.4
		l1.9-21c0,0-26-2.4-37.8-9.5C59.3,223.4,56.9,230.4,49.8,232.8z"/>
	<path class="st1" d="M112.1,241.8c-1.8-13.6-9.3-23.5-18.6-23.5H50.3c-9.3,0-16.8,9.9-18.6,23.5c-6.7,3.4-10.1,10.4-10.1,18.5
		c0,6.2,2,11.8,6,15.6v12.9h16V281h56.6v7.8h16v-12.9c4-3.8,6-9.4,6-15.6C122.3,252.2,118.8,245.2,112.1,241.8L112.1,241.8z
		 M50.4,223.1h43.2c6.1,0,11.4,7.2,13.4,17c-1-0.2-2.1-0.3-3.1-0.3c0,0,0,0,0-0.1c0-5.7-4.6-10.3-10.3-10.3s-10.3,4.6-10.3,10.3
		H41.4c-1.6,0-3.1,0.1-4.5,0.4C38.9,230.3,44.3,223.1,50.4,223.1L50.4,223.1z M100.6,239.6H86.5c0-3.9,3.2-7.1,7.1-7.1
		C97.4,232.6,100.6,235.7,100.6,239.6L100.6,239.6z M39,267c-3.7,0-6.7-3-6.7-6.7c0-3.7,3-6.7,6.7-6.7s6.7,3,6.7,6.7
		C45.7,264,42.7,267,39,267L39,267z M91.4,265.8h-39c-0.9,0-1.6-0.7-1.6-1.6c0-0.9,0.7-1.6,1.6-1.6h39c0.9,0,1.6,0.7,1.6,1.6
		C93,265.1,92.3,265.8,91.4,265.8L91.4,265.8z M91.4,259.9h-39c-0.9,0-1.6-0.7-1.6-1.6c0-0.9,0.7-1.6,1.6-1.6h39
		c0.9,0,1.6,0.7,1.6,1.6C93,259.2,92.3,259.9,91.4,259.9L91.4,259.9z M104.9,267c-3.7,0-6.7-3-6.7-6.7c0-3.7,3-6.7,6.7-6.7
		s6.7,3,6.7,6.7C111.6,264,108.6,267,104.9,267L104.9,267z"/>
</g>
</svg>
