<?xml version="1.0" encoding="utf-8"?>
<!-- Generator: Adobe Illustrator 19.1.0, SVG Export Plug-In . SVG Version: 6.00 Build 0)  -->
<svg version="1.1" id="Layer_1" xmlns="http://www.w3.org/2000/svg" xmlns:xlink="http://www.w3.org/1999/xlink" x="0px" y="0px"
	 viewBox="-3.7 180.5 153 153" style="enable-background:new -3.7 180.5 153 153;" xml:space="preserve">
<style type="text/css">
	.st0{fill:#7BA940;}
</style>
<g>
	<path class="st0" d="M101.5,228.9l-37,37.7l-19-19.1l-10.2,10.2l29.9,29.8l48.1-46.6L101.5,228.9z"/>
	<path class="st0" d="M72.8,180.5c-42.3,0-76.5,34.3-76.5,76.5c0,42.3,34.3,76.5,76.5,76.5c42.3,0,76.5-34.3,76.5-76.5
		S115.1,180.5,72.8,180.5L72.8,180.5z M72.8,319.7c-34.6,0-62.7-28.1-62.7-62.7s28.1-62.7,62.7-62.7s62.6,28.1,62.7,62.7
		C135.5,291.6,107.4,319.7,72.8,319.7L72.8,319.7z"/>
</g>
</svg>
