<?xml version="1.0" encoding="utf-8"?>
<!-- Generator: Adobe Illustrator 19.1.0, SVG Export Plug-In . SVG Version: 6.00 Build 0)  -->
<svg version="1.1" id="Layer_1" xmlns="http://www.w3.org/2000/svg" xmlns:xlink="http://www.w3.org/1999/xlink" x="0px" y="0px"
	 viewBox="-3 181.2 151.6 151.6" style="enable-background:new -3 181.2 151.6 151.6;" xml:space="preserve">
<style type="text/css">
	.st0{fill:#7BA940;}
	.st1{clip-path:url(#SVGID_2_);fill:#FFFFFF;}
</style>
<g>
	<circle class="st0" cx="72.8" cy="257" r="75.8"/>
	<path class="st0" d="M37.6,283l21.1-8.8c1.8-0.7,2.9-2.5,2.9-4.4v-5.7h23.6v5.7c0,1.9,1.1,3.6,2.9,4.4l21.1,8.8
		c2.6,1.1,4.4,3.7,4.4,6.5v9.5c0,2.6-2.1,4.7-4.7,4.7H38c-2.6,0-4.7-2.1-4.7-4.7v-9.4C33.3,286.7,35,284.1,37.6,283z"/>
	<path class="st0" d="M49.8,232.8l1.9,21c0.3,3.1,2.1,5.9,4.8,7.4l12.3,6.8c2.9,1.6,6.3,1.6,9.2,0l12.3-6.8c2.7-1.5,4.5-4.3,4.8-7.4
		l1.9-21c0,0-26-2.4-37.8-9.5C59.3,223.4,56.9,230.4,49.8,232.8z"/>
	<g>
		<g>
			<g>
				<defs>
					<rect id="SVGID_1_" x="25.4" y="208.8" width="96.4" height="97"/>
				</defs>
				<clipPath id="SVGID_2_">
					<use xlink:href="#SVGID_1_"  style="overflow:visible;"/>
				</clipPath>
				<path class="st1" d="M54.8,239.7l-21.6-21.6c2.8-2.8,5.6-5.6,8.4-8.4c1.3-1.3,3.4-1.3,4.7,0l16.8,16.8c1.3,1.3,1.3,3.4,0,4.7
					l-7.1,7.1C55.5,238.8,55.1,239.3,54.8,239.7L54.8,239.7z M72.6,274.9c-3.5-3.1-6.9-6.3-10.2-9.6c-3.3-3.3-6.5-6.7-9.6-10.3
					c-2.5-2.9-3-7.1-1.7-10.6l-22.2-22.2c-5.2,5.3-4.5,18.5,1.1,30c2.4,5,5.6,9.5,8.8,13.8c3.2,4.2,6.8,8.3,10.6,12.1
					c3.8,3.8,7.8,7.4,12,10.6c4.3,3.2,8.8,6.4,13.8,8.8c11.6,5.7,24.7,6.3,30,1.1l-22.1-22C79.6,277.9,75.4,277.4,72.6,274.9
					L72.6,274.9z M118,281.5l-16.8-16.8c-1.3-1.3-3.4-1.3-4.7,0l-3.7,3.7l-3.4,3.4c-0.4,0.4-0.9,0.8-1.4,1.1l21.6,21.6
					c2.8-2.8,5.6-5.6,8.4-8.4C119.2,284.9,119.3,282.8,118,281.5L118,281.5z"/>
			</g>
		</g>
	</g>
</g>
</svg>
