<?xml version="1.0" encoding="utf-8"?>
<!-- Generator: Adobe Illustrator 19.1.0, SVG Export Plug-In . SVG Version: 6.00 Build 0)  -->
<svg version="1.1" id="Layer_1" xmlns="http://www.w3.org/2000/svg" xmlns:xlink="http://www.w3.org/1999/xlink" x="0px" y="0px"
	 viewBox="-3 181.2 151.6 151.6" style="enable-background:new -3 181.2 151.6 151.6;" xml:space="preserve">
<style type="text/css">
	.st0{fill:#7BA940;}
	.st1{fill:#FFFFFF;}
</style>
<g>
	<circle class="st0" cx="72.8" cy="257" r="75.8"/>
	<path class="st0" d="M37.6,283l21.1-8.8c1.8-0.7,2.9-2.5,2.9-4.4v-5.7h23.6v5.7c0,1.9,1.1,3.6,2.9,4.4l21.1,8.8
		c2.6,1.1,4.4,3.7,4.4,6.5v9.5c0,2.6-2.1,4.7-4.7,4.7H38c-2.6,0-4.7-2.1-4.7-4.7v-9.4C33.3,286.7,35,284.1,37.6,283z"/>
	<path class="st0" d="M49.8,232.8l1.9,21c0.3,3.1,2.1,5.9,4.8,7.4l12.3,6.8c2.9,1.6,6.3,1.6,9.2,0l12.3-6.8c2.7-1.5,4.5-4.3,4.8-7.4
		l1.9-21c0,0-26-2.4-37.8-9.5C59.3,223.4,56.9,230.4,49.8,232.8z"/>
	<g>
		<path class="st1" d="M116.8,241l5.4-6.9l-5.4-6.9H52.4v-10.6l-6.9-5.4l-6.9,5.4v10.6h-7.4v13.9h7.3v61.1h13.9v-61.1h14.8v8H59
			v41.2h52.1v-41.2h-7.2v-8h12.9V241z M107,286.2H63.5v-32.8H107V286.2z M98.7,249H72.5v-8h26.2V249z"/>
		<rect x="55.5" y="248.6" class="st1" width="60.8" height="43"/>
		<g>
			<path class="st0" d="M67.4,255.2h9.5v2.7h-5.6v2.2h4.8v2.5h-4.8v5.1h-3.8L67.4,255.2L67.4,255.2z"/>
			<path class="st0" d="M78.5,261.4c0-2,0.6-3.6,1.7-4.7c1.1-1.1,2.7-1.7,4.7-1.7c2.1,0,3.7,0.6,4.8,1.7c1.1,1.1,1.7,2.7,1.7,4.7
				c0,1.4-0.2,2.6-0.7,3.6c-0.5,0.9-1.2,1.6-2.1,2.2c-0.9,0.5-2.1,0.8-3.4,0.8c-1.4,0-2.6-0.2-3.5-0.7c-0.9-0.4-1.7-1.2-2.2-2.1
				C78.8,264.1,78.5,262.9,78.5,261.4z M82.3,261.4c0,1.3,0.2,2.2,0.7,2.7s1.1,0.8,1.9,0.8c0.8,0,1.5-0.3,1.9-0.8
				c0.5-0.5,0.7-1.5,0.7-2.9c0-1.2-0.2-2-0.7-2.6c-0.5-0.5-1.1-0.8-1.9-0.8c-0.8,0-1.4,0.3-1.9,0.8
				C82.5,259.3,82.3,260.2,82.3,261.4z"/>
			<path class="st0" d="M93.4,267.6v-12.4h6.4c1.2,0,2.1,0.1,2.7,0.3c0.6,0.2,1.1,0.6,1.5,1.1s0.6,1.2,0.6,2c0,0.7-0.1,1.3-0.4,1.8
				c-0.3,0.5-0.7,0.9-1.2,1.2c-0.3,0.2-0.8,0.4-1.3,0.5c0.5,0.2,0.8,0.3,1,0.5c0.1,0.1,0.3,0.3,0.6,0.7c0.3,0.3,0.4,0.6,0.5,0.8
				l1.9,3.6h-4.3l-2-3.8c-0.3-0.5-0.5-0.8-0.7-1c-0.3-0.2-0.6-0.3-0.9-0.3h-0.3v5H93.4L93.4,267.6z M97.3,260.2h1.6
				c0.2,0,0.5-0.1,1-0.2c0.3-0.1,0.5-0.2,0.6-0.4c0.2-0.2,0.2-0.4,0.2-0.7c0-0.4-0.1-0.7-0.4-0.9c-0.3-0.2-0.7-0.3-1.4-0.3h-1.7
				L97.3,260.2L97.3,260.2z"/>
			<path class="st0" d="M60.7,285.3v-12.4h6.4c1.2,0,2.1,0.1,2.7,0.3c0.6,0.2,1.1,0.6,1.5,1.1s0.6,1.2,0.6,2c0,0.7-0.1,1.3-0.4,1.8
				c-0.3,0.5-0.7,0.9-1.2,1.2c-0.3,0.2-0.8,0.4-1.3,0.5c0.5,0.2,0.8,0.3,1,0.5c0.1,0.1,0.3,0.3,0.6,0.7c0.3,0.3,0.4,0.6,0.5,0.8
				l1.9,3.6h-4.3l-2-3.8c-0.3-0.5-0.5-0.8-0.7-1c-0.3-0.2-0.6-0.3-0.9-0.3h-0.3v5L60.7,285.3L60.7,285.3z M64.6,277.9h1.6
				c0.2,0,0.5-0.1,1-0.2c0.3-0.1,0.5-0.2,0.6-0.4c0.1-0.2,0.2-0.4,0.2-0.7c0-0.4-0.1-0.7-0.4-0.9c-0.3-0.2-0.7-0.3-1.4-0.3h-1.7
				L64.6,277.9L64.6,277.9z"/>
			<path class="st0" d="M74.1,272.9h10.3v2.6H78v2h6v2.5h-6v2.4h6.6v2.8H74.1L74.1,272.9L74.1,272.9z"/>
			<path class="st0" d="M86.7,272.9h3.6l4.7,6.9v-6.9h3.6v12.4H95l-4.6-6.8v6.8h-3.6L86.7,272.9L86.7,272.9z"/>
			<path class="st0" d="M100.2,272.9h11.7v3.1H108v9.3h-3.8V276h-4V272.9z"/>
		</g>
	</g>
</g>
</svg>
