<?xml version="1.0" encoding="utf-8"?>
<!-- Generator: Adobe Illustrator 19.1.0, SVG Export Plug-In . SVG Version: 6.00 Build 0)  -->
<svg version="1.1" id="Layer_1" xmlns="http://www.w3.org/2000/svg" xmlns:xlink="http://www.w3.org/1999/xlink" x="0px" y="0px"
	 viewBox="-3 181.2 151.6 151.6" style="enable-background:new -3 181.2 151.6 151.6;" xml:space="preserve">
<style type="text/css">
	.st0{fill:#7BA940;}
	.st1{fill:#FFFFFF;}
</style>
<g>
	<circle class="st0" cx="72.8" cy="257" r="75.8"/>
	<path class="st0" d="M37.6,283l21.1-8.8c1.8-0.7,2.9-2.5,2.9-4.4v-5.7h23.6v5.7c0,1.9,1.1,3.6,2.9,4.4l21.1,8.8
		c2.6,1.1,4.4,3.7,4.4,6.5v9.5c0,2.6-2.1,4.7-4.7,4.7H38c-2.6,0-4.7-2.1-4.7-4.7v-9.4C33.3,286.7,35,284.1,37.6,283z"/>
	<path class="st0" d="M49.8,232.8l1.9,21c0.3,3.1,2.1,5.9,4.8,7.4l12.3,6.8c2.9,1.6,6.3,1.6,9.2,0l12.3-6.8c2.7-1.5,4.5-4.3,4.8-7.4
		l1.9-21c0,0-26-2.4-37.8-9.5C59.3,223.4,56.9,230.4,49.8,232.8z"/>
	<g>
		<path class="st1" d="M107.6,251.9c-1.7,0-3,1.3-3,3v40.8H83.4V279c0-1.6-1.3-2.9-2.9-2.9H65.2c-1.7,0-3,1.4-3,2.9v16.7h-21v-39.4
			c0-1.6-1.3-2.9-3-2.9c-1.6,0-2.9,1.3-2.9,2.9v42.4c0,1.6,1.3,2.9,2.9,2.9h27.1c1.6,0,2.9-1.3,2.9-2.9V282h9.4v16.7
			c0,1.6,1.3,2.9,3,2.9h27c1.6,0,2.9-1.3,2.9-2.9v-43.8C110.5,253.2,109.2,251.9,107.6,251.9L107.6,251.9z"/>
		<path class="st1" d="M123.9,254.3l-23.6-23.7v-16.1c0-1.7-1.4-3-3-3s-2.9,1.3-2.9,3v10.2L75,205.2c-0.6-0.6-1.3-0.9-2-0.9
			c-0.8,0-1.5,0.3-2.1,0.9L22.1,254c-1.2,1.2-1.2,3,0,4.1c1.1,1.3,3,1.2,4.1,0L73,211.4l46.7,47.1c0.5,0.5,1.2,0.8,2.1,0.8
			c0.8,0,1.5-0.3,2.1-0.8C125,257.4,125,255.5,123.9,254.3L123.9,254.3z"/>
	</g>
</g>
</svg>
