<?xml version="1.0" encoding="utf-8"?>
<!-- Generator: Adobe Illustrator 19.1.0, SVG Export Plug-In . SVG Version: 6.00 Build 0)  -->
<svg version="1.1" id="Layer_1" xmlns="http://www.w3.org/2000/svg" xmlns:xlink="http://www.w3.org/1999/xlink" x="0px" y="0px"
	 viewBox="-3 181.2 151.6 151.6" style="enable-background:new -3 181.2 151.6 151.6;" xml:space="preserve">
<style type="text/css">
	.st0{fill:#7BA940;}
	.st1{fill:#FFFFFF;}
	.st2{fill:none;stroke:#7BA940;stroke-width:3.6204;stroke-linecap:round;stroke-miterlimit:10;}
</style>
<g>
	<circle class="st0" cx="72.8" cy="257" r="75.8"/>
	<path class="st1" d="M123.3,293.8H22.5c-3.1,0-5.6-2.5-5.6-5.6v-62c0-3.1,2.5-5.6,5.6-5.6h100.7c3.1,0,5.6,2.5,5.6,5.6v62
		C128.8,291.3,126.3,293.8,123.3,293.8z"/>
	<line class="st2" x1="72.1" y1="241.9" x2="116" y2="241.9"/>
	<line class="st2" x1="72.1" y1="253.4" x2="116" y2="253.4"/>
	<line class="st2" x1="72.1" y1="264.9" x2="116" y2="264.9"/>
	<line class="st2" x1="72.1" y1="276.3" x2="116" y2="276.3"/>
	<g>
		<g>
			<path class="st0" d="M44.6,260.5c4.9,0,8.8-4.6,8.8-10.3c0-7.9-3.9-10.3-8.8-10.3c-4.9,0-8.8,2.4-8.8,10.3
				C35.8,255.9,39.8,260.5,44.6,260.5L44.6,260.5z"/>
			<path class="st0" d="M64,275.6l-4.4-10c-0.2-0.5-0.6-0.8-1-1.1l-6.9-3.6c-0.2-0.1-0.3-0.1-0.5,0c-1.9,1.5-4.2,2.3-6.6,2.3
				c-2.4,0-4.7-0.8-6.6-2.3c-0.1-0.1-0.3-0.1-0.5,0l-6.9,3.6c-0.4,0.2-0.8,0.6-1,1.1l-4.4,10c-0.3,0.7-0.2,1.5,0.2,2.1
				c0.4,0.6,1.1,1,1.9,1h34.8c0.8,0,1.4-0.4,1.9-1C64.3,277.1,64.4,276.3,64,275.6L64,275.6z"/>
		</g>
	</g>
</g>
</svg>
