<svg xmlns="http://www.w3.org/2000/svg" xmlns:xlink="http://www.w3.org/1999/xlink" version="1.1" id="Layer_1" x="0px" y="0px" viewBox="-3 181.2 151.6 151.6" xml:space="preserve" enable-background="new -3 181.2 151.6 151.6">
  <style type="text/css">
    
	.st0{fill:#cccccc;}
	.st1{fill:none;stroke:#FFFFFF;stroke-width:7.3299;stroke-miterlimit:10;}
	.st2{fill:none;stroke:#FFFFFF;stroke-width:7;stroke-linecap:round;stroke-miterlimit:10;}
	.st3{fill:#FFFFFF;}

  </style>
  <g>
    <circle class="st0" cx="72.8" cy="257" r="75.8"/>
    <path class="st1" d="M119.4 290.1H23.9c-2.9 0-5.2-2.3-5.2-5.2v-56.2c0-2.9 2.3-5.2 5.2-5.2h95.5c2.9 0 5.2 2.3 5.2 5.2v56.2C124.6 287.8 122.3 290.1 119.4 290.1z"/>
    <path class="st0" d="M126.1 300.4H79.6c-4.6 0-8.4-3.8-8.4-8.4v-29.7c0-4.6 3.8-8.4 8.4-8.4h46.5c4.6 0 8.4 3.8 8.4 8.4V292C134.5 296.7 130.7 300.4 126.1 300.4z"/>
    <line class="st2" x1="81.7" y1="265" x2="125.7" y2="265"/>
    <line class="st2" x1="81.7" y1="277.6" x2="125.7" y2="277.6"/>
    <line class="st2" x1="81.7" y1="290" x2="125.7" y2="290"/>
    <g>
      <path class="st3" d="M48.6 237.8H49c3.4 0 7.2 1.2 9.7 3.4l-4.1 4.6c-1.5-1.6-3.7-2.7-6-2.7v9.9h0.2c5.5 1.5 11.1 3.3 11.1 10 0 6.5-5 10.2-11.3 10.8v3.6h-2.7v-3.5c-4.3 0-8.5-1.2-11.5-4.4l4.5-4.6c1.6 2.2 4.3 3.4 7 3.6v-10.4h-0.2c-5.5-1.5-10.4-3.6-10.4-10.1 0-5.9 5.1-9.6 10.7-10.2v-3.3h2.7L48.6 237.8 48.6 237.8zM46 243.2c-2.3 0.4-4.4 2-4.4 4.5 0 3 2.1 3.5 4.4 4.5V243.2zM48.6 268.5c2.7-0.5 5.1-2.2 5.1-5.1 0-2.9-2.8-3.7-5.1-4.5V268.5z"/>
    </g>
  </g>
</svg>
