<?xml version="1.0" encoding="utf-8"?>
<!-- Generator: Adobe Illustrator 19.1.0, SVG Export Plug-In . SVG Version: 6.00 Build 0)  -->
<svg version="1.1" id="Layer_1" xmlns="http://www.w3.org/2000/svg" xmlns:xlink="http://www.w3.org/1999/xlink" x="0px" y="0px"
	 viewBox="-35 178.1 108.9 141.8" style="enable-background:new -35 178.1 108.9 141.8;" xml:space="preserve">
<style type="text/css">
	.st0{fill:#E9E9E0;}
	.st1{fill:#D9D7CA;}
	.st2{fill:#CC4B4C;}
	.st3{fill:#FFFFFF;}
</style>
<g>
	<path class="st0" d="M42.3,178.1h-73.5c-2.1,0-3.7,1.7-3.7,4.9v134.4c0,0.9,1.7,2.5,3.7,2.5H70.3c2,0,3.7-1.7,3.7-2.5V210.9
		c0-1.8-0.2-2.3-0.6-2.7l-29.5-29.5C43.5,178.3,42.8,178.1,42.3,178.1L42.3,178.1z"/>
	<path class="st1" d="M43.5,178.5v30h30L43.5,178.5z"/>
	<path class="st2" d="M-2,262.5c-0.9,0-1.7-0.3-2.4-0.8c-2.6-2-3-4.2-2.8-5.7c0.5-4.1,5.6-8.4,15.2-12.8c3.8-8.3,7.4-18.6,9.6-27.2
		c-2.5-5.5-5-12.6-3.2-16.8c0.6-1.5,1.4-2.6,2.9-3.1c0.6-0.2,2-0.4,2.6-0.4c1.3,0,2.4,1.6,3.2,2.7c0.7,1,2.4,3-1,17.2
		c3.4,7,8.3,14.2,12.9,19.1c3.3-0.6,6.2-0.9,8.5-0.9c4,0,6.4,0.9,7.3,2.8c0.8,1.6,0.5,3.4-1,5.5c-1.4,2-3.4,3-5.6,3
		c-3.1,0-6.7-1.9-10.7-5.8c-7.2,1.5-15.6,4.2-22.4,7.1c-2.1,4.5-4.1,8.1-6,10.8C2.5,260.8,0.2,262.5-2,262.5L-2,262.5z M4.7,249.5
		c-5.4,3-7.6,5.5-7.8,6.9c0,0.2-0.1,0.8,1.1,1.8C-1.5,258.1,0.6,257.1,4.7,249.5L4.7,249.5z M39.3,238.2c2.1,1.6,2.6,2.4,3.9,2.4
		c0.6,0,2.3,0,3.1-1.1c0.4-0.5,0.5-0.9,0.6-1.1c-0.3-0.2-0.7-0.5-3-0.5C42.6,238,41,238,39.3,238.2L39.3,238.2z M20.3,221.6
		c-1.8,6.3-4.2,13-6.8,19.2c5.3-2.1,11-3.8,16.4-5.1C26.6,231.6,23.3,226.7,20.3,221.6L20.3,221.6z M18.8,200.1
		c-0.2,0.1-3.4,4.5,0.2,8.1C21.5,202.9,19,200.1,18.8,200.1L18.8,200.1z"/>
	<path class="st2" d="M70.3,319.9H-31.3c-2.1,0-3.7-1.7-3.7-3.7v-39.3H73.9v39.3C73.9,318.2,72.3,319.9,70.3,319.9L70.3,319.9z"/>
	<path class="st3" d="M-7.4,312.3h-4.2v-25.5h7.3c1.1,0,2.2,0.2,3.2,0.5c1.1,0.3,2,0.9,2.9,1.6c0.8,0.7,1.5,1.5,2,2.5
		s0.8,2.1,0.8,3.3c0,1.3-0.2,2.5-0.7,3.5c-0.4,1.1-1.1,1.9-1.8,2.7c-0.8,0.7-1.7,1.3-2.8,1.7c-1.1,0.4-2.3,0.6-3.7,0.6h-3.1
		L-7.4,312.3L-7.4,312.3z M-7.4,289.9V300h3.8c0.5,0,1-0.1,1.5-0.3c0.5-0.2,1-0.5,1.4-0.9s0.7-0.9,1-1.6c0.2-0.7,0.4-1.6,0.4-2.6
		c0-0.4-0.1-0.9-0.2-1.4s-0.4-1.1-0.7-1.6c-0.4-0.5-0.9-0.9-1.5-1.3c-0.6-0.3-1.5-0.5-2.6-0.5h-3.1V289.9z"/>
	<path class="st3" d="M30.1,298.8c0,2.1-0.2,3.9-0.7,5.4s-1,2.7-1.7,3.7s-1.5,1.8-2.3,2.4c-0.9,0.6-1.7,1-2.5,1.3
		c-0.8,0.3-1.5,0.5-2.2,0.6s-1.2,0.1-1.5,0.1H9.6v-25.5h7.7c2.1,0,4,0.3,5.6,1c1.6,0.7,3,1.6,4.1,2.7c1.1,1.1,1.9,2.4,2.4,3.9
		C30,295.8,30.1,297.3,30.1,298.8L30.1,298.8z M17.8,309.2c2.8,0,4.8-0.9,6.1-2.7c1.3-1.8,1.9-4.4,1.9-7.8c0-1.1-0.1-2.1-0.4-3.2
		c-0.3-1-0.8-2-1.5-2.8c-0.7-0.8-1.7-1.5-3-2s-2.9-0.8-4.8-0.8h-2.4v19.3H17.8z"/>
	<path class="st3" d="M40.5,289.9v8h10.7v2.8H40.5v11.5h-4.2v-25.5h16v3.2H40.5z"/>
</g>
</svg>
