<?xml version="1.0" encoding="utf-8"?>
<!-- Generator: Adobe Illustrator 19.1.0, SVG Export Plug-In . SVG Version: 6.00 Build 0)  -->
<svg version="1.1" id="Layer_1" xmlns="http://www.w3.org/2000/svg" xmlns:xlink="http://www.w3.org/1999/xlink" x="0px" y="0px"
	 viewBox="-3 181.2 151.6 151.6" style="enable-background:new -3 181.2 151.6 151.6;" xml:space="preserve">
<style type="text/css">
	.st0{fill:#7BA940;}
	.st1{fill:#FFFFFF;}
</style>
<g>
	<circle class="st0" cx="72.8" cy="257" r="75.8"/>
	<path class="st0" d="M37.6,283l21.1-8.8c1.8-0.7,2.9-2.5,2.9-4.4v-5.7h23.6v5.7c0,1.9,1.1,3.6,2.9,4.4l21.1,8.8
		c2.6,1.1,4.4,3.7,4.4,6.5v9.5c0,2.6-2.1,4.7-4.7,4.7H38c-2.6,0-4.7-2.1-4.7-4.7v-9.4C33.3,286.7,35,284.1,37.6,283z"/>
	<path class="st0" d="M49.8,232.8l1.9,21c0.3,3.1,2.1,5.9,4.8,7.4l12.3,6.8c2.9,1.6,6.3,1.6,9.2,0l12.3-6.8c2.7-1.5,4.5-4.3,4.8-7.4
		l1.9-21c0,0-26-2.4-37.8-9.5C59.3,223.4,56.9,230.4,49.8,232.8z"/>
	<g>
		<path class="st1" d="M118.6,238h-0.8l-8.1-13.1c-1.6-2.5-4.3-4-7.3-4h-6c-2.8,0-5.2,2.3-5.2,5.2v38.3h-8c0,0-28.5-50.2-28.6-50.4
			c-1.9-3.6-4.9-6.5-9.2-6.5c-5.4,0-9.7,4.4-9.7,9.8c0,3.3,1.6,6.2,4.2,8l-2,5.3c-0.2,0.7-0.2,1.4,0.1,2c0.3,0.6,0.8,1.1,1.5,1.4
			c1.8,0.7,2.6,2.6,2,4.4c-0.3,0.9-1,1.5-1.8,1.9c-0.8,0.4-1.8,0.4-2.6,0.1c-0.9-0.3-1.6-1.1-2-2c-0.5-1.4-2-2.1-3.4-1.6
			s-2.1,2-1.6,3.4c0.9,2.4,2.7,4.2,5.1,5.1c1,0.4,2.1,0.6,3.1,0.6c1.2,0,2.4-0.3,3.6-0.8c2.1-1,3.8-2.7,4.6-4.9
			c1.4-3.6,0.2-7.6-2.7-9.9l1.3-3.3c0.2,0,0.4,0.1,0.6,0.1c1,0,1.9-0.2,2.9-0.5v37.9H27.1c-2.8,0-5.2,2.3-5.2,5.2v8.6
			c0,5.3,4.3,9.6,9.6,9.6h7.2c0.6,7.3,6.6,13.1,14.1,13.1s13.5-5.8,14.1-13.1h16.6c0.6,7.3,6.6,13.1,14.1,13.1s13.5-5.8,14.1-13.1
			h7.2c5.3,0,9.6-4.3,9.6-9.6v-30.7C128.3,242.3,124,238,118.6,238L118.6,238z M102.4,227.9c0.5,0,1,0.3,1.2,0.7l5.8,9.4H98.3v-10.1
			H102.4z M55.5,229.5l19.6,34.7H55.5V229.5z M52.6,293.6c-3.9,0-7.1-3.2-7.1-7.1s3.2-7.1,7.1-7.1c3.9,0,7.1,3.2,7.1,7.1
			C59.7,290.4,56.5,293.6,52.6,293.6L52.6,293.6z M97.4,293.6c-3.9,0-7.1-3.2-7.1-7.1s3.2-7.1,7.1-7.1c3.9,0,7.1,3.2,7.1,7.1
			C104.5,290.4,101.3,293.6,97.4,293.6L97.4,293.6z M121.2,277.9c0,1.4-1.1,2.5-2.5,2.5h-8.5c-2.3-4.8-7.1-8.2-12.8-8.2
			s-10.5,3.4-12.8,8.2H65.5c-2.3-4.8-7.1-8.2-12.8-8.2s-10.5,3.4-12.8,8.2h-8.4c-1.4,0-2.5-1.1-2.5-2.5v-6.6h92.2V277.9z
			 M98.4,264.2v-19.1h20.2c1.4,0,2.5,1.1,2.5,2.5v16.6H98.4z"/>
	</g>
</g>
</svg>
