<?xml version="1.0" encoding="utf-8"?>
<!-- Generator: Adobe Illustrator 19.1.0, SVG Export Plug-In . SVG Version: 6.00 Build 0)  -->
<svg version="1.1" id="Layer_1" xmlns="http://www.w3.org/2000/svg" xmlns:xlink="http://www.w3.org/1999/xlink" x="0px" y="0px"
	 viewBox="-3 181.2 151.6 151.6" style="enable-background:new -3 181.2 151.6 151.6;" xml:space="preserve">
<style type="text/css">
	.st0{fill:#7BA940;}
	.st1{fill:#FFFFFF;}
</style>
<g>
	<circle class="st0" cx="72.8" cy="257" r="75.8"/>
	<path class="st0" d="M37.6,283l21.1-8.8c1.8-0.7,2.9-2.5,2.9-4.4v-5.7h23.6v5.7c0,1.9,1.1,3.6,2.9,4.4l21.1,8.8
		c2.6,1.1,4.4,3.7,4.4,6.5v9.5c0,2.6-2.1,4.7-4.7,4.7H38c-2.6,0-4.7-2.1-4.7-4.7v-9.4C33.3,286.7,35,284.1,37.6,283z"/>
	<path class="st0" d="M49.8,232.8l1.9,21c0.3,3.1,2.1,5.9,4.8,7.4l12.3,6.8c2.9,1.6,6.3,1.6,9.2,0l12.3-6.8c2.7-1.5,4.5-4.3,4.8-7.4
		l1.9-21c0,0-26-2.4-37.8-9.5C59.3,223.4,56.9,230.4,49.8,232.8z"/>
	<g>
		<path class="st1" d="M29.9,251c-5,0-9.5,2-12.8,5.4c2.9-25.1,22.2-45.2,47-49.3c-20.6,14.8-22,40.8-21.9,48.8
			C38.9,252.8,34.5,251,29.9,251L29.9,251z"/>
		<path class="st1" d="M58.4,251c-4.7,0-9.2,1.9-12.4,5.1c-0.1-7.6,1.1-35.8,25.1-48.8v49C67.8,253,63.3,251,58.4,251L58.4,251z"/>
		<path class="st1" d="M87.7,251c-4.9,0-9.4,2-12.7,5.4v-49c24,13,25.2,41.2,25.1,48.8C96.8,252.9,92.4,251,87.7,251L87.7,251z"/>
		<path class="st1" d="M116.2,251c-4.6,0-9,1.9-12.3,5c0.1-8-1.3-34.1-22-48.9c24.9,3.9,44.5,24.3,47.3,49.6
			C126,253.1,121.3,251,116.2,251L116.2,251z"/>
		<path class="st1" d="M75.1,294.8v-32c-0.4,0.6-1.1,1.1-1.9,1.1l0,0c-0.8,0-1.5-0.5-1.9-1.1v32"/>
		<path class="st1" d="M75,203.8v-5.7c0-1.1-0.9-1.9-1.9-1.9c-1.1,0-1.9,0.9-1.9,1.9v5.7c0,0,0,0.1,0,0.2H75
			C75,203.9,75,203.8,75,203.8L75,203.8z"/>
	</g>
	<path class="st1" d="M75.9,296.7h-5.4v16.5l0,0l0,0c0,0.9,1.2,1.7,2.7,1.7s2.7-0.7,2.7-1.7l0,0l0,0V296.7z"/>
</g>
</svg>
